<?xml version="1.0" encoding="UTF-8" standalone="no"?>
<!DOCTYPE svg PUBLIC "-//W3C//DTD SVG 1.1//EN" "http://www.w3.org/Graphics/SVG/1.1/DTD/svg11.dtd">
<svg width="100%" height="100%" viewBox="0 0 1460 537" version="1.1" xmlns="http://www.w3.org/2000/svg" xmlns:xlink="http://www.w3.org/1999/xlink" xml:space="preserve" xmlns:serif="http://www.serif.com/" style="fill-rule:evenodd;clip-rule:evenodd;stroke-linejoin:round;stroke-miterlimit:2;">
    <g transform="matrix(1,0,0,1,193.283,100.874)">
        <g transform="matrix(0.987103,0,0,0.987103,-148.344,-331.347)">
            <g transform="matrix(0.561687,0,0,0.561687,685.784,139.526)">
                <path d="M646.016,413.421L633.742,466.584C619.478,463.291 604.887,461.629 590.248,461.629C483.536,461.629 396.899,548.266 396.899,654.978C396.899,761.69 483.536,848.327 590.248,848.327C696.96,848.327 783.597,761.69 783.597,654.978C783.597,639.775 781.804,624.624 778.255,609.841L831.309,597.104C835.86,616.059 838.159,635.484 838.159,654.978C838.159,791.803 727.074,902.889 590.248,902.889C453.422,902.889 342.337,791.803 342.337,654.978C342.337,518.152 453.422,407.067 590.248,407.067C609.018,407.067 627.727,409.199 646.016,413.421Z" style="fill:rgb(49,56,50);"/>
            </g>
            <g transform="matrix(1.04801,0,0,1.04801,-211.48,231.656)">
                <circle cx="1172.51" cy="263.13" r="24.794" style="fill:rgb(48,55,50);"/>
            </g>
            <path d="M1048.64,371.739L1041.75,401.601" style="fill:none;"/>
            <path d="M1122.92,482.066L1152.72,474.912" style="fill:none;"/>
            <g transform="matrix(0.976329,0,0,0.976329,73.0386,-14.3825)">
                <circle cx="1090.6" cy="504.821" r="15.707" style="fill:rgb(49,56,50);"/>
            </g>
            <g transform="matrix(0.976329,0,0,0.976329,-19.5853,-106.202)">
                <circle cx="1090.6" cy="504.821" r="15.707" style="fill:rgb(49,56,50);"/>
            </g>
            <g transform="matrix(0.910255,0.353065,-0.353065,0.910255,272.489,-439.644)">
                <circle cx="1090.6" cy="504.821" r="15.707" style="fill:rgb(201,19,40);"/>
            </g>
            <g transform="matrix(0.720975,0.658341,-0.658341,0.720975,665.377,-644.899)">
                <circle cx="1090.6" cy="504.821" r="15.707" style="fill:rgb(111,15,14);"/>
            </g>
        </g>
        <g transform="matrix(1.20414,0,0,1.20414,458.535,-353.744)">
            <path d="M60.489,354.311L5.645,444.311L5.645,548.711L-19.555,548.711L-19.555,444.311L-90.955,329.111L-60.955,329.111L-7.255,415.811L45.845,329.111L105.447,329.111C129.447,329.111 145.947,330.161 154.947,332.261C163.947,334.361 171.747,337.911 178.347,342.911C184.947,347.911 190.147,354.361 193.947,362.261C197.747,370.161 199.647,378.911 199.647,388.511C199.647,406.711 193.447,421.261 181.047,432.161C168.647,443.061 150.747,448.511 127.347,448.511L205.047,548.711L172.647,548.711L95.247,448.511L86.247,448.511L86.247,548.711L60.447,548.711L60.447,423.311L121.347,423.311C138.947,423.511 151.947,420.861 160.347,415.361C168.747,409.861 172.947,401.061 172.947,388.961C172.947,376.861 168.847,368.061 160.647,362.561C152.447,357.061 139.647,354.311 122.247,354.311L60.489,354.311Z" style="fill:rgb(48,55,50);"/>
        </g>
        <g transform="matrix(1.20414,0,0,1.20414,81.3863,-353.744)">
            <path d="M72.565,475.211L84.432,449.111L180.147,449.111L132.569,343.238L142.947,320.411L150.747,320.411L253.047,548.711L225.747,548.711L191.847,475.211L72.565,475.211Z" style="fill:rgb(48,55,50);"/>
        </g>
        <g transform="matrix(1,0,0,1,0,-0.531479)">
            <g transform="matrix(1,0,0,1,-193.283,-97.3739)">
                <path d="M386.381,404.886L269.18,404.886L269.18,331.381C269.18,322.709 276.221,315.667 284.894,315.667C293.566,315.667 300.608,322.709 300.608,331.381L300.608,374.903L400.015,374.903L386.381,404.886Z" style="fill:rgb(48,55,50);"/>
            </g>
            <g transform="matrix(1,0,0,1.25472,-193.283,-135.66)">
                <path d="M269.18,193.121L269.18,142.457L300.608,142.457L300.608,193.121C300.608,200.033 293.566,205.645 284.894,205.645C276.221,205.645 269.18,200.033 269.18,193.121Z" style="fill:rgb(48,55,50);"/>
            </g>
            <g transform="matrix(5.97829e-17,-0.976329,0.976329,5.97829e-17,-400.882,1255.96)">
                <circle cx="1090.6" cy="504.821" r="15.707" style="fill:rgb(201,19,40);"/>
            </g>
            <g transform="matrix(5.97829e-17,-0.976329,0.976329,5.97829e-17,-400.882,1214.26)">
                <circle cx="1090.6" cy="504.821" r="15.707" style="fill:rgb(111,15,14);"/>
            </g>
            <g transform="matrix(1,0,0,1,-180.668,-94.2877)">
                <rect x="256.564" y="194.94" width="31.428" height="133.355" style="fill:rgb(48,55,50);"/>
            </g>
        </g>
    </g>
</svg>
